<svg width="228" height="96" viewBox="0 0 228 96" fill="none" xmlns="http://www.w3.org/2000/svg">
<rect x="0.5" y="0.5" width="227" height="95" stroke="black"/>
<path d="M62.0455 63V28.0909H64.1761V61.0227H81.2216V63H62.0455ZM98.0455 63.5455C95.8864 63.5455 93.9659 62.9659 92.2841 61.8068C90.6023 60.6364 89.2784 59.0284 88.3125 56.983C87.3466 54.9375 86.8636 52.608 86.8636 49.9943C86.8636 47.3693 87.3466 45.0398 88.3125 43.0057C89.2784 40.9602 90.6023 39.3523 92.2841 38.1818C93.9659 37.0114 95.8864 36.4261 98.0455 36.4261C100.205 36.4261 102.125 37.0114 103.807 38.1818C105.489 39.3523 106.813 40.9602 107.778 43.0057C108.744 45.0511 109.227 47.3807 109.227 49.9943C109.227 52.608 108.744 54.9375 107.778 56.983C106.813 59.0284 105.489 60.6364 103.807 61.8068C102.125 62.9659 100.205 63.5455 98.0455 63.5455ZM98.0455 61.6193C99.875 61.6193 101.472 61.1023 102.835 60.0682C104.21 59.0341 105.273 57.6364 106.023 55.875C106.784 54.1136 107.165 52.1534 107.165 49.9943C107.165 47.8352 106.784 45.8807 106.023 44.1307C105.261 42.3693 104.199 40.9716 102.835 39.9375C101.472 38.892 99.875 38.3693 98.0455 38.3693C96.2159 38.3693 94.6193 38.892 93.2557 39.9375C91.892 40.9716 90.8295 42.3693 90.0682 44.1307C89.3068 45.8807 88.9261 47.8352 88.9261 49.9943C88.9261 52.1534 89.3011 54.1136 90.0511 55.875C90.8125 57.6364 91.875 59.0341 93.2386 60.0682C94.6136 61.1023 96.2159 61.6193 98.0455 61.6193ZM125.834 73.3636C124.209 73.3636 122.749 73.1477 121.453 72.7159C120.158 72.2955 119.055 71.6932 118.146 70.9091C117.249 70.125 116.561 69.1932 116.084 68.1136L117.822 67.0909C118.209 67.9318 118.76 68.6818 119.476 69.3409C120.192 70 121.078 70.517 122.135 70.892C123.203 71.267 124.436 71.4545 125.834 71.4545C128.357 71.4545 130.351 70.8011 131.817 69.4943C133.294 68.1989 134.033 66.2102 134.033 63.5284V57.017H133.828C133.43 58.1534 132.839 59.1648 132.055 60.0511C131.283 60.9261 130.334 61.6136 129.209 62.1136C128.084 62.6136 126.805 62.8636 125.374 62.8636C123.305 62.8636 121.487 62.3295 119.919 61.2614C118.351 60.1932 117.129 58.6932 116.254 56.7614C115.379 54.8182 114.942 52.5341 114.942 49.9091C114.942 47.2841 115.368 44.9602 116.22 42.9375C117.084 40.9034 118.3 39.3125 119.868 38.1648C121.436 37.0057 123.277 36.4261 125.391 36.4261C126.902 36.4261 128.209 36.7159 129.311 37.2955C130.425 37.8636 131.357 38.6193 132.107 39.5625C132.857 40.5057 133.436 41.5398 133.845 42.6648H134.084V36.8182H136.095V63.6136C136.095 65.7955 135.663 67.608 134.8 69.0511C133.947 70.4943 132.749 71.5739 131.203 72.2898C129.669 73.0057 127.879 73.3636 125.834 73.3636ZM125.561 60.9375C127.311 60.9375 128.817 60.4943 130.078 59.608C131.351 58.7102 132.328 57.4375 133.01 55.7898C133.703 54.1307 134.05 52.1648 134.05 49.892C134.05 47.6875 133.714 45.7159 133.044 43.9773C132.374 42.2386 131.402 40.8693 130.129 39.8693C128.857 38.8693 127.334 38.3693 125.561 38.3693C123.754 38.3693 122.214 38.8807 120.942 39.9034C119.669 40.9148 118.692 42.2898 118.01 44.0284C117.339 45.767 117.004 47.7216 117.004 49.892C117.004 52.0739 117.345 53.9943 118.027 55.6534C118.709 57.3011 119.686 58.5966 120.959 59.5398C122.232 60.4716 123.766 60.9375 125.561 60.9375ZM154.577 63.5455C152.418 63.5455 150.497 62.9659 148.815 61.8068C147.134 60.6364 145.81 59.0284 144.844 56.983C143.878 54.9375 143.395 52.608 143.395 49.9943C143.395 47.3693 143.878 45.0398 144.844 43.0057C145.81 40.9602 147.134 39.3523 148.815 38.1818C150.497 37.0114 152.418 36.4261 154.577 36.4261C156.736 36.4261 158.656 37.0114 160.338 38.1818C162.02 39.3523 163.344 40.9602 164.31 43.0057C165.276 45.0511 165.759 47.3807 165.759 49.9943C165.759 52.608 165.276 54.9375 164.31 56.983C163.344 59.0284 162.02 60.6364 160.338 61.8068C158.656 62.9659 156.736 63.5455 154.577 63.5455ZM154.577 61.6193C156.406 61.6193 158.003 61.1023 159.366 60.0682C160.741 59.0341 161.804 57.6364 162.554 55.875C163.315 54.1136 163.696 52.1534 163.696 49.9943C163.696 47.8352 163.315 45.8807 162.554 44.1307C161.793 42.3693 160.73 40.9716 159.366 39.9375C158.003 38.892 156.406 38.3693 154.577 38.3693C152.747 38.3693 151.151 38.892 149.787 39.9375C148.423 40.9716 147.361 42.3693 146.599 44.1307C145.838 45.8807 145.457 47.8352 145.457 49.9943C145.457 52.1534 145.832 54.1136 146.582 55.875C147.344 57.6364 148.406 59.0341 149.77 60.0682C151.145 61.1023 152.747 61.6193 154.577 61.6193Z" fill="black"/>
</svg>
